<svg width="24" height="24" viewBox="0 0 24 24" fill="none" xmlns="http://www.w3.org/2000/svg">
<path opacity="0.3" d="M9.60059 6.00098H14.4014V4.40137H15.6006V6.00098H18.001C19.1055 6.00098 20.001 6.89641 20.001 8.00098V17.001C20.0009 18.1055 19.1055 19.001 18.001 19.001H6.00098C4.96539 19.001 4.11406 18.2137 4.01172 17.2051L4.00098 17.001V8.00098C4.00098 6.89641 4.89641 6.00098 6.00098 6.00098H8.40137V4.40137H9.60059V6.00098ZM5.20117 10.5996V17.001C5.20127 17.4427 5.55921 17.8008 6.00098 17.8008H18.001C18.4427 17.8008 18.8007 17.4427 18.8008 17.001V10.5996H5.20117ZM6.00098 7.20117C5.55915 7.20117 5.20117 7.55915 5.20117 8.00098V9.40039H18.8008V8.00098C18.8008 7.55915 18.4428 7.20117 18.001 7.20117H6.00098Z" fill="currentColor"/>
</svg>
