<svg width="24" height="24" viewBox="0 0 24 24" fill="none" xmlns="http://www.w3.org/2000/svg">
<path d="M14 6C15.0198 6 15.8593 6.76355 15.9824 7.75H17C18.1046 7.75 19 8.64543 19 9.75V16.25C19 17.3546 18.1046 18.25 17 18.25H7C5.89543 18.25 5 17.3546 5 16.25V9.75C5 8.64543 5.89543 7.75 7 7.75H8.01758C8.14072 6.76355 8.98018 6 10 6H14ZM12 10C10.6193 10 9.5 11.1193 9.5 12.5C9.5 13.8807 10.6193 15 12 15C13.3807 15 14.5 13.8807 14.5 12.5C14.5 11.1193 13.3807 10 12 10Z" fill="currentColor"/>
<circle cx="12" cy="12.5" r="1.5" fill="currentColor"/>
</svg>
