<svg width="24" height="24" viewBox="0 0 24 24" fill="none" xmlns="http://www.w3.org/2000/svg">
<path opacity="0.3" d="M10.8877 4.7464L11.1659 5.16186L11.1659 5.16185L10.8877 4.7464ZM13.1143 4.7464L12.8361 5.16185L12.8361 5.16186L13.1143 4.7464ZM19.1143 8.76398L19.3926 8.34859L19.3925 8.34851L19.1143 8.76398ZM18.001 19.0003V19.5003V19.5003V19.0003ZM14.001 15.0003H14.501V15.0002L14.001 15.0003ZM12.001 13.0003V12.5003V12.5003V13.0003ZM10.001 15.0003L9.50098 15.0002V15.0003H10.001ZM6.00098 19.0003V19.5003V19.5003V19.0003ZM4.8877 8.76398L4.6095 8.34851L4.60939 8.34859L4.8877 8.76398ZM10.8877 4.7464L11.1659 5.16185C11.6709 4.82367 12.331 4.82367 12.8361 5.16185L13.1143 4.7464L13.3925 4.33095C12.5508 3.7673 11.4512 3.7673 10.6095 4.33095L10.8877 4.7464ZM13.1143 4.7464L12.8361 5.16186L18.8361 9.17944L19.1143 8.76398L19.3925 8.34851L13.3925 4.33094L13.1143 4.7464ZM19.1143 8.76398L18.836 9.17936C19.2514 9.45773 19.501 9.92558 19.501 10.4261H20.001H20.501C20.501 9.59241 20.0854 8.81281 19.3926 8.34859L19.1143 8.76398ZM20.001 10.4261H19.501V17.0003H20.001H20.501V10.4261H20.001ZM20.001 17.0003H19.501C19.501 17.8287 18.8294 18.5003 18.001 18.5003V19.0003V19.5003C19.3817 19.5003 20.501 18.381 20.501 17.0003H20.001ZM18.001 19.0003V18.5003H16.001V19.0003V19.5003H18.001V19.0003ZM14.001 17.0003H14.501V15.0003H14.001H13.501V17.0003H14.001ZM14.001 15.0003L14.501 15.0002C14.5007 13.6199 13.3816 12.5003 12.001 12.5003V13.0003V13.5003C12.8291 13.5003 13.5008 14.172 13.501 15.0004L14.001 15.0003ZM12.001 13.0003V12.5003C10.6203 12.5003 9.50128 13.6199 9.50098 15.0002L10.001 15.0003L10.501 15.0004C10.5012 14.172 11.1728 13.5003 12.001 13.5003V13.0003ZM10.001 15.0003H9.50098V17.0003H10.001H10.501V15.0003H10.001ZM8.00098 19.0003V18.5003H6.00098V19.0003V19.5003H8.00098V19.0003ZM6.00098 19.0003V18.5003C5.17255 18.5003 4.50098 17.8287 4.50098 17.0003H4.00098H3.50098C3.50098 18.381 4.62026 19.5003 6.00098 19.5003V19.0003ZM4.00098 17.0003H4.50098V10.4261H4.00098H3.50098V17.0003H4.00098ZM4.00098 10.4261H4.50098C4.50098 9.92559 4.75052 9.45773 5.166 9.17936L4.8877 8.76398L4.60939 8.34859C3.91651 8.81281 3.50098 9.59241 3.50098 10.4261H4.00098ZM4.8877 8.76398L5.16589 9.17944L11.1659 5.16186L10.8877 4.7464L10.6095 4.33094L4.6095 8.34851L4.8877 8.76398ZM10.001 17.0003H9.50098C9.50098 17.8287 8.8294 18.5003 8.00098 18.5003V19.0003V19.5003C9.38169 19.5003 10.501 18.381 10.501 17.0003H10.001ZM16.001 19.0003V18.5003C15.1725 18.5003 14.501 17.8287 14.501 17.0003H14.001H13.501C13.501 18.381 14.6203 19.5003 16.001 19.5003V19.0003Z" fill="currentColor"/>
</svg>
