<svg width="24" height="24" viewBox="0 0 24 24" fill="none" xmlns="http://www.w3.org/2000/svg">
<path d="M10.8877 4.74573C11.5611 4.29481 12.4409 4.29481 13.1143 4.74573L19.1143 8.76428C19.6683 9.13555 20.0009 9.75846 20.001 10.4254V17.0006C20.001 18.1052 19.1055 19.0006 18.001 19.0006H16.001C14.8964 19.0006 14.001 18.1052 14.001 17.0006V15.0006C14.0009 13.8961 13.1055 13.0006 12.001 13.0006C10.8965 13.0006 10.0011 13.8961 10.001 15.0006V17.0006C10.001 18.1052 9.10555 19.0006 8.00098 19.0006H6.00098C4.89641 19.0006 4.00098 18.1052 4.00098 17.0006V10.4254C4.00105 9.75846 4.33365 9.13555 4.8877 8.76428L10.8877 4.74573Z" fill="currentColor"/>
</svg>
