<svg width="20" height="20" viewBox="0 0 20 20" fill="none" xmlns="http://www.w3.org/2000/svg">
<path fill-rule="evenodd" clip-rule="evenodd" d="M9.76496 9C12.6642 9.00034 15.765 11.6171 15.765 14.8447C15.7649 15.6796 15.5198 17.2075 14.265 17.7666C12.3902 18.6012 11.437 16.9318 9.76398 16.9316C8.09164 16.9325 7.13938 18.6012 5.26496 17.7666C4.00997 17.2075 3.765 15.6796 3.76496 14.8447C3.76496 11.6173 6.86487 9.0007 9.76398 9H9.76496ZM1.64484 6.68457C2.68279 6.30679 3.90698 7.05216 4.37921 8.34961C4.85137 9.64693 5.06477 10.7604 3.3548 11.3828C1.64491 12.0051 1.09262 11.015 0.620425 9.71777C0.148196 8.42034 0.606895 7.06236 1.64484 6.68457ZM15.6204 8.34961C16.0927 7.05216 17.3168 6.30679 18.3548 6.68457C19.3926 7.06248 19.8514 8.42043 19.3792 9.71777C18.907 11.015 18.3546 12.005 16.6448 11.3828C14.9348 10.7604 15.1482 9.64697 15.6204 8.34961ZM6.76496 2C7.86953 2 8.76496 3.34315 8.76496 5C8.76496 6.65685 8.76496 8 6.76496 8C4.76531 7.99984 4.76496 6.65676 4.76496 5C4.76496 3.34332 5.66055 2.00029 6.76496 2ZM12.765 2C13.8695 2 14.765 3.34315 14.765 5C14.765 6.65685 14.765 8 12.765 8C10.7653 7.99984 10.765 6.65676 10.765 5C10.765 3.34332 11.6605 2.00029 12.765 2Z" fill="currentColor"/>
</svg>
