<svg width="24" height="24" viewBox="0 0 24 24" fill="none" xmlns="http://www.w3.org/2000/svg">
<path d="M12.001 3.00098C16.9715 3.00098 21.001 7.03041 21.001 12.001C21.0009 16.9715 16.9715 21.001 12.001 21.001C7.03047 21.001 3.00108 16.9715 3.00098 12.001C3.00098 7.03041 7.03041 3.00098 12.001 3.00098ZM12.001 4.20117C7.69316 4.20117 4.20117 7.69316 4.20117 12.001C4.20127 16.3087 7.69322 19.8008 12.001 19.8008C16.3087 19.8008 19.8007 16.3087 19.8008 12.001C19.8008 7.69316 16.3088 4.20117 12.001 4.20117ZM12.001 6.37598C15.1076 6.37598 17.626 8.89437 17.626 12.001C17.6259 15.1075 15.1075 17.626 12.001 17.626C8.89444 17.626 6.37608 15.1075 6.37598 12.001C6.37598 8.89437 8.89437 6.37598 12.001 6.37598ZM12.001 7.57617C9.55712 7.57617 7.57617 9.55712 7.57617 12.001C7.57627 14.4448 9.55718 16.4258 12.001 16.4258C14.4448 16.4258 16.4257 14.4448 16.4258 12.001C16.4258 9.55712 14.4448 7.57617 12.001 7.57617ZM12.001 11.001C12.5533 11.001 13.001 11.4487 13.001 12.001C13.0009 12.5532 12.5532 13.001 12.001 13.001C11.4488 13.001 11.0011 12.5532 11.001 12.001C11.001 11.4487 11.4487 11.001 12.001 11.001Z" fill="currentColor"/>
</svg>
