<svg width="24" height="24" viewBox="0 0 24 24" fill="none" xmlns="http://www.w3.org/2000/svg">
<path d="M13.5 4.90039C14.3837 4.90039 15.0996 5.61634 15.0996 6.5V7.40039H19V8.59961H17.5996V17C17.5996 18.4359 16.4359 19.5996 15 19.5996H9C7.56406 19.5996 6.40039 18.4359 6.40039 17V8.59961H5V7.40039H8.90039V6.5C8.90039 5.61634 9.61634 4.90039 10.5 4.90039H13.5ZM7.59961 17C7.59961 17.7732 8.2268 18.4004 9 18.4004H15C15.7732 18.4004 16.4004 17.7732 16.4004 17V8.59961H7.59961V17ZM11.0996 15H9.90039V11H11.0996V15ZM14.0996 15H12.9004V11H14.0996V15ZM10.5 6.09961C10.2791 6.09961 10.0996 6.27909 10.0996 6.5V7.40039H13.9004V6.5C13.9004 6.27909 13.7209 6.09961 13.5 6.09961H10.5Z" fill="#FC5B3F"/>
</svg>
